<svg xmlns="http://www.w3.org/2000/svg" width="500" height="110.27" viewBox="0 0 500 110.27"><defs><style>.a{fill:#fd830b;}.b{fill:#f9d81f;}.c{fill:#012d75;}</style></defs><title>Plenoil-logo-2022</title><path class="a" d="M474.55,194.87H500V303.49H474.55Z" transform="translate(0 -194.87)"></path><path class="a" d="M426,229.13h25.46v74.36H426Z" transform="translate(0 -194.87)"></path><path class="a" d="M360.53,245.55c-2.4,3.4-4.84,6.72-7.14,10.13A29.74,29.74,0,0,0,348.34,267a19.8,19.8,0,0,0,14.73,23.24,21.89,21.89,0,0,0,8.76.17c2.29-.38,4.61-.55,6.88-1A52.36,52.36,0,0,0,389.85,286a53.74,53.74,0,0,0,12-7.26c1.38-1.08,2.6-2.34,4.15-3.75-.25,1.21-.38,2.18-.66,3.11a36.67,36.67,0,0,1-5.84,12.14,33.72,33.72,0,0,1-9.1,8.23,41.34,41.34,0,0,1-15.15,5.26,56.4,56.4,0,0,1-6.65.47c-1.66.07-3.32,0-5,0a44.27,44.27,0,0,1-10.9-1.73,34.81,34.81,0,0,1-12.13-6.08,31.36,31.36,0,0,1-7.66-8.87,42.57,42.57,0,0,1-5-14.33c-.15-.78-.13-1.59-.25-2.38a3.78,3.78,0,0,1,1.09-3.15A60.89,60.89,0,0,1,346,253.23c4.46-2.54,9.05-4.85,13.59-7.26C359.89,245.81,360.22,245.69,360.53,245.55Z" transform="translate(0 -194.87)"></path><path class="a" d="M438.73,197.4a16.12,16.12,0,0,1,9.15,2.71c3.05,2,4.72,4.72,4.29,8.43a8.76,8.76,0,0,1-3.71,5.93,16,16,0,0,1-11.61,3.06,14.22,14.22,0,0,1-9.23-4.12c-3.33-3.48-3.6-8.21,0-11.82a14.19,14.19,0,0,1,7.84-3.86C436.54,197.53,437.64,197.5,438.73,197.4Z" transform="translate(0 -194.87)"></path><path class="b" d="M385.36,282.32c.44-1.59.86-2.85,1.13-4.14a29.5,29.5,0,0,0,.27-8.7,21.47,21.47,0,0,0-2.58-8.55,69.08,69.08,0,0,0-7.82-11.59c-2.16-2.56-4.39-5.06-6.51-7.65a4.2,4.2,0,0,0-4.39-1.28A116.62,116.62,0,0,0,348.23,245a62.18,62.18,0,0,0-17.2,9,11.82,11.82,0,0,0-1.34,1.31c-.4.42-.78.86-1.17,1.29l-.43-.22c.76-2.41,1.4-4.86,2.31-7.21a32.21,32.21,0,0,1,13.87-16.07,39.93,39.93,0,0,1,13.7-4.8,51,51,0,0,1,13.45-.65,61.11,61.11,0,0,1,11.06,2,32.52,32.52,0,0,1,12,6.39,31.79,31.79,0,0,1,8.11,10.27,36.22,36.22,0,0,1,3.61,11.28c.13.9.31,1.79.44,2.68.38,2.81-1,5-2.67,7a56.65,56.65,0,0,1-13.66,12.13C388.73,280.34,387.14,281.25,385.36,282.32Z" transform="translate(0 -194.87)"></path><path class="c" d="M0,212.12a71.46,71.46,0,0,1,14.17-3.59c3.7-.49,7.4-1,11.12-1.3a103.77,103.77,0,0,1,10.86-.43,76.13,76.13,0,0,1,18.63,2.38,41,41,0,0,1,12.32,5.45,25.72,25.72,0,0,1,11.07,16.56,27.75,27.75,0,0,1-3.63,21,27,27,0,0,1-9.18,8.73,47.7,47.7,0,0,1-16.28,5.94c-2.49.46-5,.7-7.55.91-2.92.23-5.84.42-8.76.42-2.17,0-4.34-.31-6.69-.5v36.05H0Zm26,25.59c0,5.37,0,10.75,0,16.12,0,.82.3,1.1,1.07,1.12,2.27.06,4.53.16,6.8.21a24.18,24.18,0,0,0,10-1.77,13.82,13.82,0,0,0,8.06-8.29,24.92,24.92,0,0,0,.57-14.36,13.27,13.27,0,0,0-5.62-8.32,18,18,0,0,0-9.32-2.8,36,36,0,0,0-10.14.6c-.93.22-1.43.46-1.41,1.59C26,227.11,26,232.41,26,237.71Z" transform="translate(0 -194.87)"></path><path class="c" d="M217.7,267.29l-54.24,6.46c.55,1.77.92,3.46,1.58,5,2.78,6.51,8,9.88,14.77,11.08a32.69,32.69,0,0,0,6.82.64,60,60,0,0,0,14-1.83c2.64-.73,5.26-1.5,8-2.28q2.77,6.36,5.83,13.33c-1.14.42-2.19.85-3.25,1.2A66.79,66.79,0,0,1,197.61,304c-2.81.32-5.62.7-8.44.85-3.74.19-7.5.35-11.23.21a48.56,48.56,0,0,1-17.4-3.73,36.31,36.31,0,0,1-12.28-8.25,34,34,0,0,1-8-13.89,34.48,34.48,0,0,1-1.75-11.12,2.28,2.28,0,0,1,.64-1.49,54,54,0,0,1,10.15-7.43c4.44-2.48,9-4.8,13.75-7.34a40,40,0,0,0-1.34,11.46l7.4-1c1.9-.25,3.81-.47,5.71-.72,2.08-.27,4.16-.57,6.25-.83,1.94-.25,3.88-.48,5.83-.71s3.75-.43,5.61-.7a1,1,0,0,0,.54-.76c-.38-4.65-.72-9.32-3.58-13.32a11.76,11.76,0,0,0-7.69-4.89,28.64,28.64,0,0,0-10.56.46,97.11,97.11,0,0,0-14.69,4,55.62,55.62,0,0,0-15.46,8.39c-.4.3-.65.79-1.09,1.09a31,31,0,0,1,5.06-11.46,32.35,32.35,0,0,1,11.59-10.2,43.1,43.1,0,0,1,12.85-4.35,57.7,57.7,0,0,1,14-.65,42.67,42.67,0,0,1,14.62,3.27,30.74,30.74,0,0,1,11.65,8.57,32.12,32.12,0,0,1,6.93,16.22C217.24,259.44,217.37,263.28,217.7,267.29Z" transform="translate(0 -194.87)"></path><path class="c" d="M121.21,194.9V303.72H95.71V194.9Z" transform="translate(0 -194.87)"></path><path class="c" d="M310.24,303.79H285.86c-1.47,0-1.47,0-1.47-1.44,0-16.91,0-33.81,0-50.71,0-5.39-2.89-9-8.29-10.16a28.38,28.38,0,0,0-10.83-.27,102.1,102.1,0,0,0-15.73,3.89,57.75,57.75,0,0,0-15.14,7.58,4.18,4.18,0,0,1-.38.21v-1.16c0-5.89,0-11.78,0-17.67A1.27,1.27,0,0,1,235,232.6a80.66,80.66,0,0,1,13.87-3.3c3-.37,5.89-.83,8.84-1.08,3.1-.26,6.21-.37,9.31-.45s6.44-.18,9.65,0a60,60,0,0,1,18.12,3.55A26,26,0,0,1,304.91,238a20,20,0,0,1,4.85,10.11,32.89,32.89,0,0,1,.46,5.87q.06,24.19,0,48.39Z" transform="translate(0 -194.87)"></path><path class="c" d="M259.59,250.81V303.7H234c0-.34,0-.7,0-1.05q0-18.47,0-36.91a1.91,1.91,0,0,1,.86-1.74A115.08,115.08,0,0,1,253,253.64C255.11,252.61,257.33,251.77,259.59,250.81Z" transform="translate(0 -194.87)"></path></svg>